<svg width="61" height="60" viewBox="0 0 61 60" fill="none" xmlns="http://www.w3.org/2000/svg">
<path d="M47.5 11H11.5V50H47.5V11Z" fill="white"/>
<path d="M15.2 10.7998H12.05V49.6498H15.2V10.7998Z" fill="#FCFCFC" fill-opacity="0.87"/>
<path d="M47.5 10.9995H44.5V48.9995H47.5V10.9995Z" fill="#E0E0E0"/>
<path d="M19.7 10.6499H15.65C13.1 10.6499 11 10.6499 11 10.6499V45.2999V49.9499H15.65H33.5" stroke="#7A7D89" stroke-width="1.5" stroke-miterlimit="10"/>
<path d="M47.4501 36.4499V15.2999C47.4501 12.7499 47.4501 16.4995 47.4501 10.6499H38.1501" stroke="#7A7D89" stroke-width="1.5" stroke-miterlimit="10"/>
<path d="M19.7 26.8499H38.1499" stroke="#7A7D89" stroke-width="1.5" stroke-miterlimit="10" stroke-linejoin="round"/>
<path d="M19.7 38.3999H24.35" stroke="#7A7D89" stroke-width="1.5" stroke-miterlimit="10" stroke-linejoin="round"/>
<path d="M22.7 6.8999L19.7 10.6499H19.85V12.8999V15.1499H22.1H35.8999H38.1499V12.8999V10.6499L34.9998 6.8999H22.7Z" fill="white" stroke="#7A7D89" stroke-width="1.2721" stroke-miterlimit="10"/>
<circle cx="42.8291" cy="48.6779" r="4.69626" fill="white"/>
<path d="M42.0271 39.9993C43.009 39.9993 43.991 39.9993 44.9729 39.9993C45.0884 40.579 45.1462 41.1587 45.2617 41.7384C45.2617 41.7964 45.2617 41.7964 45.3195 41.7964C45.7816 41.9123 46.1859 42.0862 46.5903 42.3181C46.648 42.3181 46.648 42.3181 46.7058 42.3181C47.1679 41.9703 47.63 41.6804 48.0921 41.3326C48.1498 41.2746 48.1498 41.3326 48.2076 41.3326C48.843 42.0283 49.5361 42.6659 50.1715 43.3616C50.2292 43.4196 50.2292 43.4196 50.1715 43.4775C49.8249 43.9413 49.4783 44.4051 49.1895 44.8688C49.1895 44.8688 49.1318 44.9268 49.1895 44.9848C49.4206 45.3906 49.5939 45.8543 49.7094 46.2601C49.7094 46.2601 49.7094 46.3181 49.7671 46.3181C49.8827 46.3181 49.9982 46.3761 50.1137 46.3761C50.5758 46.4341 51.0379 46.55 51.5 46.608C51.5 47.5935 51.5 48.579 51.5 49.5645C51.2112 49.6225 50.9801 49.6225 50.6913 49.6804C50.4025 49.7384 50.056 49.7964 49.7671 49.7964C49.7094 49.7964 49.7094 49.7964 49.7094 49.8543C49.5939 50.3181 49.4206 50.7239 49.1895 51.1297C49.1895 51.1877 49.1895 51.1877 49.1895 51.2456C49.5361 51.7094 49.8827 52.1732 50.1715 52.6369C50.1715 52.6949 50.1715 52.6949 50.1715 52.6949C49.5361 53.3326 48.843 54.0283 48.2076 54.6659C48.1498 54.7239 48.1498 54.7239 48.0921 54.6659C47.63 54.3181 47.1679 54.0283 46.7058 53.6804C46.648 53.6804 46.648 53.6225 46.5903 53.6804C46.1859 53.9123 45.7816 54.0862 45.3195 54.2022C45.2617 54.2022 45.2617 54.2601 45.204 54.3181C45.0884 54.8398 45.0307 55.4196 44.9152 55.9413C44.9152 55.9993 44.9152 55.9993 44.8574 55.9993C43.9332 55.9993 43.009 55.9993 42.0848 55.9993C42.0271 55.9993 41.9693 55.9993 41.9693 55.9413C41.8538 55.4196 41.796 54.8398 41.6805 54.3181C41.6805 54.2601 41.6805 54.2601 41.6227 54.2601C41.1606 54.1442 40.7563 53.9703 40.352 53.7384C40.2942 53.7384 40.2942 53.7384 40.2365 53.7384C39.7744 54.0862 39.3123 54.434 38.8502 54.7239C38.7924 54.7239 38.7924 54.7239 38.7347 54.7239C38.0993 54.0862 37.4061 53.3906 36.7708 52.7529C36.713 52.6949 36.713 52.6949 36.7708 52.6369C37.1751 52.1732 37.5217 51.7094 37.8105 51.2456C37.8105 51.1877 37.8682 51.1877 37.8105 51.1297C37.5794 50.7239 37.4061 50.3181 37.2906 49.8543C37.2906 49.7964 37.2329 49.7964 37.2329 49.7964C36.6552 49.6804 36.0776 49.6225 35.5578 49.5065C35.5 49.5065 35.5 49.5065 35.5 49.4485C35.5 48.521 35.5 47.5355 35.5 46.608C35.5 46.55 35.5 46.55 35.5578 46.55C35.6733 46.55 35.8466 46.492 35.9621 46.492C36.3664 46.4341 36.8285 46.3761 37.2329 46.3181C37.2906 46.3181 37.2906 46.3181 37.2906 46.2601C37.4639 45.7964 37.6372 45.3906 37.8682 44.9268C37.8682 44.8688 37.8682 44.8688 37.8682 44.8109C37.5217 44.4051 37.1751 43.9413 36.8285 43.4775C36.7708 43.4196 36.7708 43.4196 36.8285 43.3616C37.5217 42.7239 38.157 42.0283 38.8502 41.3906C38.9079 41.3326 38.9079 41.3326 38.9657 41.3906C39.4278 41.6804 39.8899 42.0283 40.2942 42.3181C40.352 42.3181 40.352 42.3181 40.4097 42.3181C40.8141 42.0862 41.2184 41.9123 41.6805 41.7964C41.7383 41.7964 41.7383 41.7964 41.7383 41.7384C41.8538 41.1587 41.9693 40.579 42.0271 39.9993ZM43.5289 51.1297C45.204 51.1297 46.5903 49.7384 46.5903 48.0572C46.5903 46.3761 45.204 44.9848 43.5289 44.9848C41.8538 44.9848 40.4675 46.3761 40.4675 48.0572C40.4675 49.7384 41.796 51.1297 43.5289 51.1297Z" fill="#7A7D89"/>
</svg>
