<svg width="61" height="60" viewBox="0 0 61 60" fill="none" xmlns="http://www.w3.org/2000/svg">
<path d="M12.8291 23.1328V17.0156C12.8291 14.8066 14.6392 12.9375 16.7785 12.9375H22.7025" stroke="#868A97" stroke-width="1.5" stroke-miterlimit="10"/>
<path d="M22.7025 12.9375L18.7532 8.85938L22.7025 12.9375L18.7532 17.0156L22.7025 12.9375Z" fill="white"/>
<path d="M22.7025 12.9375L18.7532 8.85938L22.7025 12.9375ZM22.7025 12.9375L18.7532 17.0156" stroke="#868A97" stroke-width="1.5" stroke-miterlimit="10"/>
<path d="M37.5 46L42.4494 41L37.5 46Z" fill="white"/>
<path d="M37.5 46L42.4494 41" stroke="#868A97" stroke-width="1.5" stroke-miterlimit="10"/>
<path d="M38 45.5L42.6139 50.1406" stroke="#868A97" stroke-width="1.5" stroke-miterlimit="10"/>
<path d="M48.538 35.3672V41.4844C48.538 43.6934 46.7278 45.5625 44.5886 45.5625H38.6646" stroke="#868A97" stroke-width="1.5" stroke-miterlimit="10"/>
<path d="M17.5 49.8105H25.5633H17.5Z" fill="white"/>
<path d="M17.5 49.8105H25.5633" stroke="#868A97" stroke-width="1.5" stroke-miterlimit="10"/>
<path d="M14.6392 44.7129H28.6266H30.6013V42.6738V33.498V31.2891H28.462H14.6392H12.5V42.5039V44.7129H14.6392Z" fill="white" stroke="#868A97" stroke-width="1.5" stroke-miterlimit="10"/>
<rect x="12.5" y="31" width="3" height="14" fill="#FCFCFC"/>
<rect x="27.5" y="31" width="3" height="14" fill="#E0E0E0"/>
<path d="M14.6392 44.7129H28.6266H30.6013V42.6738V33.498V31.2891H28.462H14.6392H12.5V42.5039V44.7129H14.6392Z" stroke="#868A97" stroke-width="1.5" stroke-miterlimit="10"/>
<path d="M35.5 27.2109H43.3987H35.5Z" fill="white"/>
<path d="M35.5 27.2109H43.3987" stroke="#868A97" stroke-width="1.5" stroke-miterlimit="10"/>
<path d="M32.6392 21.7129H46.6266H48.6013V19.6738V10.498V8.28906H46.462H32.6392H30.5V19.5039V21.7129H32.6392Z" fill="white" stroke="#868A97" stroke-width="1.5" stroke-miterlimit="10"/>
<rect x="30.5" y="8" width="3" height="14" fill="#FCFCFC"/>
<rect x="45.5" y="8" width="3" height="14" fill="#E0E0E0"/>
<path d="M32.6392 21.7129H46.6266H48.6013V19.6738V10.498V8.28906H46.462H32.6392H30.5V19.5039V21.7129H32.6392Z" stroke="#868A97" stroke-width="1.5" stroke-miterlimit="10"/>
</svg>
