<svg width="61" height="60" viewBox="0 0 61 60" fill="none" xmlns="http://www.w3.org/2000/svg">
<path d="M28.5669 41.1729V34.5043C28.5669 33.2174 27.514 32.2815 26.3441 32.2815H19.6755V25.613C19.6755 24.3261 18.6226 23.3901 17.4527 23.3901H13.007C11.7201 23.3901 10.7842 24.4431 10.7842 25.613V47.9584C10.7842 49.2453 11.8371 50.1812 13.007 50.1812H35.3524C36.6393 50.1812 37.5753 49.1283 37.5753 47.9584V43.5127C37.5753 42.2258 36.5223 41.2899 35.3524 41.2899H28.5669V41.1729Z" fill="white"/>
<rect x="10.5" y="23.0005" width="4" height="27" fill="#EDEDED"/>
<path d="M26.344 23.273V18.8273C26.344 17.5404 27.3969 16.6045 28.5668 16.6045H33.0125C34.2994 16.6045 35.2354 17.6574 35.2354 18.8273V23.273C35.2354 24.5599 34.1824 25.4959 33.0125 25.4959H28.5668C27.3969 25.6128 26.344 24.5599 26.344 23.273Z" fill="white"/>
<rect x="32.4998" y="17" width="2" height="8" fill="#EDEDED"/>
<path d="M26.344 18.8273V23.273V25.4959H28.5668H33.0125H35.2354V23.273V18.8273V16.6045H33.0125H28.5668H26.344V18.8273Z" stroke="#7A7D89" stroke-width="1.5" stroke-miterlimit="10"/>
<path d="M42.5 16.669V12.2233C42.5 10.9364 43.5529 10.0005 44.7228 10.0005H49.1685C50.4554 10.0005 51.3914 11.0534 51.3914 12.2233V16.669C51.3914 17.9559 50.3384 18.8919 49.1685 18.8919H44.7228C43.5529 19.0088 42.5 17.9559 42.5 16.669Z" fill="white"/>
<path d="M42.5 12.2233V16.669V18.8919H44.7228H49.1685H51.3914V16.669V12.2233V10.0005H49.1685H44.7228H42.5V12.2233Z" stroke="#7A7D89" stroke-width="1.5" stroke-miterlimit="10"/>
<path d="M40.5 34.669V30.2233C40.5 28.9364 41.5529 28.0005 42.7228 28.0005H47.1685C48.4554 28.0005 49.3914 29.0534 49.3914 30.2233V34.669C49.3914 35.9559 48.3384 36.8919 47.1685 36.8919H42.7228C41.5529 37.0088 40.5 35.9559 40.5 34.669Z" fill="white"/>
<path d="M40.5 30.2233V34.669V36.8919H42.7228H47.1685H49.3914V34.669V30.2233V28.0005H47.1685H42.7228H40.5V30.2233Z" stroke="#7A7D89" stroke-width="1.5" stroke-miterlimit="10"/>
<path d="M28.5669 34.5043V41.1729V41.2899H35.3524H37.5753V43.5127V47.9584V50.1812H35.3524H13.007H10.7842V47.9584V25.613V23.3901H13.007H17.4527H19.6755V25.613V32.2815H26.3441H28.5669V34.5043Z" stroke="#7A7D89" stroke-width="1.5" stroke-miterlimit="10"/>
</svg>
